<svg class="advantages__svg" xmlns="http://www.w3.org/2000/svg" fill="none" width="52" height="52" viewBox="0 0 52 52"> <rect class="advantages__svg-item advantages__svg-item--3" width="52" height="52" fill="#F6F6F9" rx="12"></rect> <path class="advantages__svg-item advantages__svg-item--1" fill="#242F65" d="M18 39h16c1.654 0 3-1.346 3-3V25c0-1.654-1.346-3-3-3v-4c0-3.86-3.14-7-7-7h-2c-3.86 0-7 3.14-7 7v4c-1.654 0-3 1.346-3 3v11c0 1.654 1.346 3 3 3zm2-21c0-2.757 2.243-5 5-5h2c2.757 0 5 2.243 5 5v4H20v-4zm-3 7c0-.551.449-1 1-1h16c.551 0 1 .449 1 1v11c0 .551-.449 1-1 1H18c-.551 0-1-.449-1-1V25z"></path> <path class="advantages__svg-item advantages__svg-item--2" fill="#0736DC" d="M26 33c1.1 0 2-.36 2-.8v-2.4c0-.44-.9-.8-2-.8s-2 .36-2 .8v2.4c0 .44.9.8 2 .8z"></path> </svg>