<svg xmlns="http://www.w3.org/2000/svg" width="155" height="32" fill="none"> <path class="logo__svg-item" fill="#fff" fill-rule="evenodd" d="M1.917 19.843c1.294 1.282 3.157 1.923 5.592 1.923.548 0 1.11-.045 1.689-.137a13.72 13.72 0 0 0 1.689-.366 9.425 9.425 0 0 0 1.46-.573v-3.229c-.79.52-1.544.886-2.259 1.1-.715.213-1.354.32-1.917.32-.944 0-1.742-.153-2.397-.458-.639-.32-1.126-.847-1.46-1.58-.32-.733-.48-1.733-.48-3s.16-2.275.48-3.023c.334-.748.806-1.283 1.415-1.603.624-.32 1.384-.481 2.282-.481.64 0 1.324.114 2.054.343.73.23 1.491.603 2.283 1.122V6.972a13.476 13.476 0 0 0-2.397-.824 10.372 10.372 0 0 0-2.442-.298c-2.541 0-4.428.68-5.66 2.039C.616 9.232 0 11.217 0 13.843c0 2.702.64 4.702 1.917 6ZM14.011 9.492v11.977h8.123V18.56h-4.426V9.492h-3.697Zm14.785 12.32c-1.156 0-2.183-.236-3.081-.71a5.295 5.295 0 0 1-2.077-2.06c-.487-.902-.73-1.97-.73-3.207 0-2.015.494-3.572 1.483-4.672 1.004-1.114 2.435-1.671 4.29-1.671 1.279 0 2.306.274 3.082.824.791.55 1.37 1.351 1.735 2.405.365 1.053.54 2.335.525 3.847h-7.626c.116.614.345 1.118.687 1.511.533.596 1.377.893 2.534.893a5.75 5.75 0 0 0 1.255-.137 10.9 10.9 0 0 0 1.187-.366c.365-.138.677-.26.935-.367v2.932a9.785 9.785 0 0 1-1.848.55c-.67.152-1.453.228-2.351.228ZM26.582 13.5a4.09 4.09 0 0 0-.208.893h4.275c-.08-.68-.233-1.192-.46-1.534-.336-.504-.883-.756-1.644-.756-.426 0-.814.107-1.164.32-.335.215-.601.573-.799 1.077Zm11.127 8.107a9.215 9.215 0 0 0 1.986.206c1.171 0 2.168-.091 2.99-.275.836-.183 1.475-.473 1.917-.87.441-.412.662-.946.662-1.603l.022-5.473c0-.702-.114-1.29-.342-1.763a3.322 3.322 0 0 0-.913-1.168 3.821 3.821 0 0 0-1.21-.688 6.045 6.045 0 0 0-1.323-.343 8.882 8.882 0 0 0-1.21-.092c-1.035 0-1.97.107-2.807.321-.822.214-1.43.443-1.826.687v3.023c.426-.336.974-.618 1.643-.847a6.016 6.016 0 0 1 2.032-.367c.821 0 1.453.16 1.894.481.456.305.684.81.684 1.512v.736a5.915 5.915 0 0 0-1.666-.622 7.004 7.004 0 0 0-1.506-.16c-.928 0-1.697.145-2.305.435-.609.29-1.065.702-1.37 1.236-.289.535-.433 1.16-.433 1.878 0 .764.13 1.405.388 1.924.259.504.616.909 1.073 1.214.471.29 1.011.496 1.62.618Zm4.2-4.787v1.787c0 .32-.16.534-.48.641-.304.107-.844.16-1.62.16-.304 0-.601-.06-.89-.183a1.618 1.618 0 0 1-.662-.526 1.286 1.286 0 0 1-.251-.779c0-.473.167-.817.502-1.03.35-.23.898-.344 1.643-.344.487 0 .943.053 1.37.16.135.034.264.072.387.114Zm4.347-7.03v11.68h2.956V17.44h.614l2.082 4.028h3.297l-2.331-4.571c.348-.124.646-.322.894-.595.32-.362.561-.788.725-1.278.165-.502.247-1.01.247-1.524 0-1.249-.292-2.177-.876-2.784-.584-.619-1.39-.928-2.421-.928h-5.187Zm4.11 5.568h-1.154v-3.38h1.25c.374 0 .661.14.862.421.21.28.315.689.315 1.226 0 .618-.114 1.062-.342 1.33-.228.27-.538.403-.93.403Z" clip-rule="evenodd"></path> <path class="logo__svg-item" fill="#fff" d="M103.08 21.494V7.574h3.37v11.27h6.032v2.65h-9.402ZM118.216 21.807c-1.775 0-3.113-.473-4.014-1.42-.888-.96-1.332-2.365-1.332-4.215 0-1.99.451-3.416 1.352-4.279.916-.876 2.247-1.315 3.994-1.315 1.179 0 2.163.202 2.954.606.804.39 1.407.995 1.809 1.816.416.82.624 1.878.624 3.172 0 1.85-.464 3.256-1.393 4.216-.93.946-2.261 1.419-3.994 1.419Zm0-2.484c.513 0 .936-.118 1.269-.355.346-.25.603-.605.769-1.064.181-.473.271-1.05.271-1.732 0-.78-.09-1.392-.271-1.837-.166-.459-.423-.786-.769-.98-.347-.21-.77-.314-1.269-.314-.527 0-.957.104-1.29.313-.332.209-.582.543-.748 1.002-.153.445-.229 1.05-.229 1.816 0 1.057.18 1.85.541 2.379.374.515.949.772 1.726.772ZM128.758 21.807a8.388 8.388 0 0 1-1.809-.188 4.474 4.474 0 0 1-1.477-.564 2.901 2.901 0 0 1-.978-1.106c-.235-.473-.353-1.057-.353-1.753 0-.654.131-1.224.395-1.711.277-.487.693-.863 1.248-1.127s1.255-.397 2.101-.397c.471 0 .929.049 1.372.146.444.098.839.23 1.186.397.361.167.645.348.853.543l.125 1.502c-.278-.167-.61-.299-.999-.396a5.113 5.113 0 0 0-1.248-.146c-.679 0-1.178.104-1.497.313-.305.194-.458.508-.458.939 0 .264.076.5.229.71.152.208.353.368.603.48.264.11.534.166.811.166.707 0 1.2-.048 1.477-.146.291-.097.437-.292.437-.584v-3.882c0-.64-.208-1.1-.624-1.377-.402-.293-.978-.439-1.727-.439-.61 0-1.227.112-1.851.334-.61.209-1.109.466-1.497.772V11.54c.36-.223.915-.432 1.664-.627.762-.194 1.615-.292 2.558-.292.333 0 .7.028 1.102.084a5.5 5.5 0 0 1 1.207.313c.402.139.769.348 1.102.626.347.278.624.633.832 1.064.208.432.312.967.312 1.607l-.021 4.988c0 .599-.201 1.086-.603 1.461-.402.362-.984.626-1.747.793-.749.167-1.657.25-2.725.25ZM135.565 11.83c.264-.138.611-.278 1.04-.417.43-.153.902-.285 1.415-.396a19.783 19.783 0 0 1 1.539-.272c.527-.07 1.012-.104 1.456-.104.943 0 1.747.125 2.413.376.665.236 1.171.626 1.518 1.168.361.543.541 1.28.541 2.213v7.096h-3.099v-6.47c0-.264-.042-.508-.125-.73a1.346 1.346 0 0 0-.333-.564 1.388 1.388 0 0 0-.624-.376 2.766 2.766 0 0 0-.957-.146c-.319 0-.638.042-.956.125-.319.07-.562.146-.728.23v7.93h-3.1v-9.662ZM150.32 21.807c-.748 0-1.393-.084-1.934-.25a14.6 14.6 0 0 1-1.498-.522V18.3c.292.194.617.396.978.605.36.195.756.355 1.186.48.443.125.908.188 1.393.188.499 0 .846-.084 1.04-.25a.83.83 0 0 0 .312-.648.646.646 0 0 0-.312-.563 2.59 2.59 0 0 0-.811-.376 16.739 16.739 0 0 0-1.061-.271 5.502 5.502 0 0 1-.998-.313 3.283 3.283 0 0 1-.895-.606 2.95 2.95 0 0 1-.644-.918c-.153-.375-.229-.828-.229-1.356 0-.682.131-1.246.395-1.691.263-.46.61-.828 1.04-1.106a4.24 4.24 0 0 1 1.394-.585c.499-.125.984-.18 1.456-.166.859.027 1.539.125 2.038.292.513.153.978.355 1.394.605v2.442a22.763 22.763 0 0 0-1.415-.73c-.457-.237-.984-.355-1.581-.355-.54 0-.929.083-1.164.25a.78.78 0 0 0-.354.668c0 .264.076.473.229.626.166.153.381.278.645.376.263.083.554.167.873.25.347.084.7.188 1.061.313.374.111.721.278 1.04.501.333.209.596.508.79.897.208.376.312.877.312 1.503-.014.849-.242 1.53-.686 2.046-.444.5-1.019.862-1.726 1.085a7.846 7.846 0 0 1-2.268.313Z"></path> <path class="logo__svg-item" fill="#fff" fill-rule="evenodd" d="M98.659 15.605c0-8.095-6.31-15.23-14.834-15.23v-.37c9.603 0 17.538 6.464 17.538 15.6S93.428 32 83.825 32v-.142c8.924 0 14.834-8.159 14.834-16.253Z" clip-rule="evenodd"></path> <path class="logo__svg-item" fill="#fff" fill-rule="evenodd" d="m53.962 6.822 7.331 14.66h1.103S67.972 8.403 73.343 3.604C77.244.119 83.856.375 83.856.375v-.37S76.137-.28 71.32 3.42c-3.862 2.967-7.975 8.887-9.455 11.12-1.29-2.097-4.61-7.249-6.34-7.718-1.466-.397-1.563 0-1.563 0Zm14.197 4.245V21.48h3.12l-.02-10.414h-3.1Zm9.612 10.727c-1.053 0-1.99-.215-2.808-.647a4.825 4.825 0 0 1-1.892-1.878c-.444-.82-.666-1.795-.666-2.922 0-1.837.45-3.256 1.352-4.258.915-1.015 2.219-1.523 3.91-1.523 1.165 0 2.101.25 2.808.751.721.501 1.248 1.232 1.581 2.192.333.96.492 2.128.478 3.506h-6.949c.106.56.315 1.019.626 1.377.486.543 1.255.814 2.31.814.387 0 .769-.041 1.143-.125a9.954 9.954 0 0 0 1.082-.334 29.3 29.3 0 0 0 .853-.334v2.672c-.5.208-1.061.375-1.685.5-.61.14-1.325.21-2.143.21Zm-2.017-7.576a3.734 3.734 0 0 0-.19.814h3.896c-.072-.62-.213-1.086-.42-1.398-.305-.46-.804-.689-1.497-.689-.389 0-.742.098-1.061.292-.305.195-.548.522-.728.981Zm7.02-3.297 3.536 10.56h2.808l1.731-5.923 1.805 5.923h2.808l2.047-6.186a14.412 14.412 0 0 0-.973-4.374h-.866l-1.856 6.88-1.805-6.88h-2.288l-1.745 6.728-1.853-6.728h-3.349Z" clip-rule="evenodd"></path> </svg>