<svg class="advantages__svg" xmlns="http://www.w3.org/2000/svg" fill="none" width="52" height="52" viewBox="0 0 52 52"> <rect class="advantages__svg-item advantages__svg-item--3" width="52" height="52" fill="#F6F6F9" rx="12"></rect> <path class="advantages__svg-item advantages__svg-item--1" fill="#242F65" d="M39.622 16.888a.93.93 0 00-.84-.187c-4.16 1.113-8.289.56-12.665-.02-4.35-.588-8.856-1.19-13.381.02-.43.11-.736.526-.736 1.003v16.595c0 .318.137.622.378.816a.93.93 0 00.84.187c4.16-1.114 8.289-.56 12.665.02 2.507.34 5.06.678 7.638.678 1.908 0 3.822-.187 5.743-.698.436-.118.736-.533.736-1.003V17.704c0-.318-.137-.622-.378-.816zm-1.575 16.588c-3.914.864-7.814.346-11.923-.2-2.507-.34-5.06-.678-7.638-.678-1.505 0-3.015.118-4.526.415V18.527c3.913-.872 7.814-.346 11.923.2 3.965.533 8.061 1.079 12.17.263v14.486h-.006z"></path> <path class="advantages__svg-item advantages__svg-item--2" fill="#0736DC" d="M18.188 19.432h-2.605c-.54 0-.977.463-.977 1.037 0 .574.437 1.037.977 1.037h2.605c.54 0 .977-.463.977-1.037 0-.574-.437-1.037-.977-1.037zM32.187 31.533c0 .574.436 1.037.976 1.037h3.256c.54 0 .977-.463.977-1.037 0-.574-.437-1.037-.977-1.037h-3.256c-.54 0-.976.463-.976 1.037zM26 20.124c-3.054 0-5.535 2.634-5.535 5.877S22.945 31.88 26 31.88c3.054 0 5.535-2.635 5.535-5.878 0-3.243-2.481-5.877-5.535-5.877zm0 9.68c-1.973 0-3.582-1.707-3.582-3.803 0-2.095 1.609-3.803 3.582-3.803 1.973 0 3.581 1.708 3.581 3.803 0 2.095-1.608 3.803-3.581 3.803z"></path> </svg>