<svg width="42" height="33" class="" viewBox="0 0 30 33" fill="none" xmlns="http://www.w3.org/2000/svg">
<defs></defs>
<g fill="none" fill-rule="evenodd">
<path d="M0 2h30v30H0z"></path>
<g stroke="var(--svgIconColor, #0064ff)" stroke-linecap="round" stroke-linejoin="round" stroke-width="2">
<path d="M23.01 23.451a1.062 1.062 0 11-2.123 0 1.062 1.062 0 012.124 0z"></path>
<path d="M27.777 12.593V4.42c0-1.999-1.911-3.44-3.832-2.893L4.903 6.948c-1.502.427-1.502 2.555 0 2.983l20.69 5.892a3.008 3.008 0 012.184 2.893v9.992a3.009 3.009 0 01-3.807 2.9L5.988 26.66a3.007 3.007 0 01-2.21-2.9V8.447"></path>
</g></g></svg>