<svg class="advantages__svg" xmlns="http://www.w3.org/2000/svg" fill="none" width="52" height="52" viewBox="0 0 52 52"> <rect class="advantages__svg-item advantages__svg-item--3" width="52" height="52" fill="#F6F6F9" rx="12"></rect> <path class="advantages__svg-item advantages__svg-item--1" fill="#242F65" d="M26 13c7.166 0 13 5.834 13 13s-5.834 13-13 13-13-5.834-13-13 5.834-13 13-13zm0 2.364A10.619 10.619 0 0015.364 26 10.619 10.619 0 0026 36.636 10.619 10.619 0 0036.636 26 10.619 10.619 0 0026 15.364zm0 2.363c.653 0 1.182.53 1.182 1.182V26c0 .437-.238.817-.591 1.022l-5.454 3.151a1.194 1.194 0 01-1.625-.43 1.183 1.183 0 01.444-1.613l4.862-2.807v-6.414c0-.653.53-1.182 1.182-1.182z"></path> <path class="advantages__svg-item advantages__svg-item--2" fill="#0736DC" d="M27.18 18.909a1.182 1.182 0 00-2.363 0v6.414l-4.863 2.807a1.183 1.183 0 00-.443 1.612c.326.566 1.06.758 1.625.431l5.453-3.151A1.18 1.18 0 0027.18 26v-7.091z"></path> </svg>